<svg xmlns="http://www.w3.org/2000/svg" xmlns:xlink="http://www.w3.org/1999/xlink" width="154.057" height="31.924" viewBox="0 0 154.057 31.924">
  <defs>
    <clipPath id="clip-path">
      <rect id="Rectangle_164" data-name="Rectangle 164" width="28.523" height="26.1" fill="none"/>
    </clipPath>
  </defs>
  <g id="Group_122" data-name="Group 122" transform="translate(-907.06 -6377.247)">
    <path id="Icon_awesome-instagram" data-name="Icon awesome-instagram" d="M15.872,9.97a8.138,8.138,0,1,0,8.138,8.138A8.125,8.125,0,0,0,15.872,9.97Zm0,13.429a5.291,5.291,0,1,1,5.291-5.291A5.3,5.3,0,0,1,15.872,23.4ZM26.241,9.637a1.9,1.9,0,1,1-1.9-1.9A1.894,1.894,0,0,1,26.241,9.637Zm5.39,1.926a9.393,9.393,0,0,0-2.564-6.651,9.455,9.455,0,0,0-6.651-2.564c-2.621-.149-10.475-.149-13.1,0A9.442,9.442,0,0,0,2.67,4.906,9.424,9.424,0,0,0,.106,11.557c-.149,2.621-.149,10.475,0,13.1A9.393,9.393,0,0,0,2.67,31.3a9.467,9.467,0,0,0,6.651,2.564c2.621.149,10.475.149,13.1,0A9.393,9.393,0,0,0,29.067,31.3a9.455,9.455,0,0,0,2.564-6.651c.149-2.621.149-10.468,0-13.089Zm-3.385,15.9a5.356,5.356,0,0,1-3.017,3.017c-2.089.829-7.047.637-9.356.637S8.6,31.3,6.516,30.481A5.356,5.356,0,0,1,3.5,27.464c-.829-2.089-.637-7.047-.637-9.356s-.184-7.274.637-9.356A5.356,5.356,0,0,1,6.516,5.735c2.089-.829,7.047-.637,9.356-.637s7.274-.184,9.356.637a5.356,5.356,0,0,1,3.017,3.017c.829,2.089.637,7.047.637,9.356S29.074,25.382,28.245,27.464Z" transform="translate(967.005 6375.009)"/>
    <path id="Icon_awesome-facebook-f" data-name="Icon awesome-facebook-f" d="M17.587,17.957l.887-5.777H12.93V8.431c0-1.581.774-3.121,3.257-3.121h2.52V.39A30.734,30.734,0,0,0,14.234,0C9.668,0,6.684,2.767,6.684,7.776v4.4H1.609v5.777H6.684V31.924H12.93V17.957Z" transform="translate(905.451 6377.247)"/>
    <g id="Group_121" data-name="Group 121" transform="translate(1032.594 6380.067)">
      <g id="Group_120" data-name="Group 120" clip-path="url(#clip-path)">
        <path id="Path_117" data-name="Path 117" d="M28.523,26.017a.576.576,0,0,1-.424.073c-2.7,0-5.39,0-8.086.011a.755.755,0,0,1-.685-.339c-2.21-2.947-4.433-5.883-6.641-8.831-.2-.271-.3-.322-.559-.04q-4.087,4.5-8.2,8.985c-.093.1-.174.214-.333.214H.317c.381-.425.691-.777,1.008-1.124q4.617-5.053,9.243-10.1c.257-.28.247-.438.022-.735Q5.375,7.248.188.342C.124.257.064.171,0,.081.145-.039.286.01.415.009c2.709,0,5.418,0,8.127-.009a.717.717,0,0,1,.651.32c2.12,2.824,4.255,5.638,6.377,8.462.186.247.284.287.513.036Q19.974,4.554,23.88.3a.807.807,0,0,1,.671-.3c.973.017,1.946.007,3.02.007-.25.288-.437.513-.635.729q-4.654,5.075-9.317,10.143c-.222.241-.185.379-.011.61q5.351,7.093,10.688,14.2c.079.106.151.217.228.328m-4.081-1.889c-.129-.186-.2-.3-.283-.405Q16.3,13.283,8.451,2.833a1.835,1.835,0,0,0-1.821-.9c-.812.076-1.636.017-2.452.017-.023.192.1.265.166.358q4.584,6.1,9.171,12.188,3.521,4.676,7.047,9.349c.106.14.191.285.415.283,1.125-.011,2.25,0,3.466,0" transform="translate(0 0)" fill="#1a1818"/>
      </g>
    </g>
  </g>
</svg>
