<svg id="Group_96" data-name="Group 96" xmlns="http://www.w3.org/2000/svg" xmlns:xlink="http://www.w3.org/1999/xlink" width="298.099" height="71.593" viewBox="0 0 298.099 71.593">
  <defs>
    <clipPath id="clip-path">
      <rect id="Rectangle_6" data-name="Rectangle 6" width="298.099" height="71.593" fill="none"/>
    </clipPath>
  </defs>
  <g id="Group_1" data-name="Group 1" transform="translate(0 0)" clip-path="url(#clip-path)">
    <path id="Path_1" data-name="Path 1" d="M224.054,13.89c0-18.52,27.473-18.52,27.473,0,0,18.557-27.473,18.557-27.473,0m20.471,0c0-9.643-13.431-9.643-13.431,0,0,9.719,13.431,9.719,13.431,0" transform="translate(-73.625 0)" fill="#e3041b"/>
    <path id="Path_2" data-name="Path 2" d="M267.853,13.89c0-18.52,27.474-18.52,27.474,0,0,18.557-27.474,18.557-27.474,0m20.471,0c0-9.643-13.431-9.643-13.431,0,0,9.719,13.431,9.719,13.431,0" transform="translate(-88.018 0)" fill="#e3041b"/>
    <path id="Path_3" data-name="Path 3" d="M309.58,6.806V.683h19.9V6.806h-6.543V27.468h-6.773V6.806Z" transform="translate(-101.73 -0.225)" fill="#e3041b"/>
    <path id="Path_4" data-name="Path 4" d="M356.285,27.468h-6.772V16.219l-8.992-14.5V.684H347.9L352.764,9.6h.268l4.86-8.915h7.423V1.717l-9.03,14.5Z" transform="translate(-111.897 -0.225)" fill="#e3041b"/>
    <path id="Path_5" data-name="Path 5" d="M225.239,48.282h3.944V61.014h6.58v3.38H225.239Z" transform="translate(-74.015 -15.866)" fill="#050605"/>
    <rect id="Rectangle_1" data-name="Rectangle 1" width="3.944" height="16.112" transform="translate(169.77 32.416)" fill="#050605"/>
    <path id="Path_6" data-name="Path 6" d="M275.305,51.662h-4.89v-3.38h13.723v3.38h-4.89V64.395h-3.944Z" transform="translate(-88.86 -15.866)" fill="#050605"/>
    <path id="Path_7" data-name="Path 7" d="M302.535,48.282h10.1v3.38h-6.152v2.929h4.913v3.38h-4.913v3.042h6.468v3.38H302.535Z" transform="translate(-99.415 -15.866)" fill="#050605"/>
    <path id="Path_8" data-name="Path 8" d="M331,48.282h5.612a8.33,8.33,0,0,1,3.132.383,4.683,4.683,0,0,1,2.974,4.687,4.9,4.9,0,0,1-2.411,4.394v.045a9.175,9.175,0,0,1,.609.969l3.132,5.633h-4.394l-2.862-5.43h-1.848v5.43H331Zm5.656,7.3A1.844,1.844,0,0,0,338.7,53.6c0-1.217-.451-1.938-2.434-1.938h-1.329v3.921Z" transform="translate(-108.767 -15.866)" fill="#050605"/>
    <path id="Path_9" data-name="Path 9" d="M369.811,61.014h-5.025l-.969,3.38h-4.056l5.476-16.112h4.146l5.477,16.112H370.8Zm-2.524-9.059s-.361,1.758-.653,2.772l-.924,3.132h3.177l-.9-3.132c-.293-1.014-.653-2.772-.653-2.772Z" transform="translate(-118.219 -15.866)" fill="#050605"/>
    <path id="Path_10" data-name="Path 10" d="M393.659,48.282h5.611a8.33,8.33,0,0,1,3.132.383,4.683,4.683,0,0,1,2.974,4.687,4.9,4.9,0,0,1-2.411,4.394v.045a9.148,9.148,0,0,1,.609.969l3.132,5.633h-4.394l-2.862-5.43H397.6v5.43h-3.944Zm5.656,7.3a1.844,1.844,0,0,0,2.05-1.983c0-1.217-.451-1.938-2.434-1.938H397.6v3.921Z" transform="translate(-129.358 -15.866)" fill="#050605"/>
    <path id="Path_11" data-name="Path 11" d="M427.2,57.792l-5.318-9.51h4.484l1.826,3.876c.518,1.1.969,2.321.969,2.321h.045s.451-1.217.969-2.321l1.8-3.876h4.484l-5.318,9.51v6.6H427.2Z" transform="translate(-138.634 -15.866)" fill="#050605"/>
    <path id="Path_12" data-name="Path 12" d="M227.826,104.635l-.853-3.123-.853,3.123H225.6l-1.1-3.871h.534l.859,3.227.888-3.227h.4l.888,3.227.853-3.227h.534l-1.1,3.871Z" transform="translate(-73.77 -33.112)" fill="#050605"/>
    <path id="Path_13" data-name="Path 13" d="M238.384,104.635v-1.777h-2.264v1.777h-.483v-3.871h.483v1.665h2.264v-1.665h.481v3.871Z" transform="translate(-77.432 -33.112)" fill="#050605"/>
    <path id="Path_14" data-name="Path 14" d="M244.747,104.635v-3.871h2.538v.429H245.23v1.247h2.014v.43H245.23v1.336h2.055v.429Z" transform="translate(-80.425 -33.112)" fill="#050605"/>
    <path id="Path_15" data-name="Path 15" d="M254.86,104.635l-.988-1.539H253.1v1.539h-.483v-3.871h1.557a1.127,1.127,0,0,1,1.213,1.166,1.072,1.072,0,0,1-1,1.127l1.045,1.578Zm-.743-3.442H253.1v1.48h1.016a.741.741,0,1,0,0-1.48" transform="translate(-83.012 -33.112)" fill="#050605"/>
    <path id="Path_16" data-name="Path 16" d="M260.827,104.635v-3.871h2.538v.429H261.31v1.247h2.014v.43H261.31v1.336h2.055v.429Z" transform="translate(-85.709 -33.112)" fill="#050605"/>
    <path id="Path_17" data-name="Path 17" d="M273.814,103.7a1.638,1.638,0,0,0,1.22.551c.69,0,.91-.371.91-.667,0-.465-.47-.592-.981-.731-.62-.163-1.312-.337-1.312-1.1,0-.639.569-1.074,1.329-1.074a1.818,1.818,0,0,1,1.376.54l-.291.353a1.479,1.479,0,0,0-1.119-.463c-.465,0-.8.248-.8.615,0,.389.447.5.94.638.633.169,1.353.367,1.353,1.178,0,.564-.383,1.138-1.428,1.138a1.92,1.92,0,0,1-1.487-.615Z" transform="translate(-89.883 -33.083)" fill="#050605"/>
    <path id="Path_18" data-name="Path 18" d="M282.669,104.635v-3.442h-1.225v-.429h2.937v.429H283.15v3.442Z" transform="translate(-92.484 -33.112)" fill="#050605"/>
    <path id="Path_19" data-name="Path 19" d="M291.176,100.668a2,2,0,1,1-1.922,2,1.89,1.89,0,0,1,1.922-2m0,.429a1.581,1.581,0,1,0,1.422,1.573,1.43,1.43,0,0,0-1.422-1.573" transform="translate(-95.05 -33.08)" fill="#050605"/>
    <path id="Path_20" data-name="Path 20" d="M301.3,104.635l-.987-1.539h-.771v1.539h-.483v-3.871h1.557a1.127,1.127,0,0,1,1.213,1.166,1.072,1.072,0,0,1-1,1.127l1.045,1.578Zm-.743-3.442h-1.014v1.48h1.014a.741.741,0,1,0,0-1.48" transform="translate(-98.271 -33.112)" fill="#050605"/>
    <rect id="Rectangle_2" data-name="Rectangle 2" width="0.483" height="3.871" transform="translate(206.296 67.652)" fill="#050605"/>
    <path id="Path_21" data-name="Path 21" d="M312.277,104.635v-3.871h2.538v.429H312.76v1.247h2.014v.43H312.76v1.336h2.055v.429Z" transform="translate(-102.616 -33.112)" fill="#050605"/>
    <path id="Path_22" data-name="Path 22" d="M320.088,103.7a1.639,1.639,0,0,0,1.22.551c.69,0,.91-.371.91-.667,0-.465-.47-.592-.981-.731-.62-.163-1.312-.337-1.312-1.1,0-.639.569-1.074,1.329-1.074a1.818,1.818,0,0,1,1.376.54l-.291.353a1.478,1.478,0,0,0-1.119-.463c-.465,0-.8.248-.8.615,0,.389.447.5.94.638.633.169,1.353.367,1.353,1.178,0,.564-.383,1.138-1.428,1.138a1.919,1.919,0,0,1-1.486-.615Z" transform="translate(-105.089 -33.083)" fill="#050605"/>
    <path id="Path_23" data-name="Path 23" d="M335.686,104.635l-1.47-1.741-.388.44v1.3h-.483v-3.871h.483v2l1.711-2h.6l-1.614,1.84,1.752,2.032Z" transform="translate(-109.539 -33.112)" fill="#050605"/>
    <rect id="Rectangle_3" data-name="Rectangle 3" width="0.483" height="3.871" transform="translate(229.277 67.652)" fill="#050605"/>
    <path id="Path_24" data-name="Path 24" d="M349.248,104.635l-2.257-3.123v3.123h-.483v-3.871H347l2.229,3.059v-3.059h.482v3.871Z" transform="translate(-113.864 -33.112)" fill="#050605"/>
    <path id="Path_25" data-name="Path 25" d="M355.581,104.635v-3.871h1.325a1.936,1.936,0,1,1,0,3.871Zm.483-.429h.842a1.507,1.507,0,0,0,0-3.013h-.842Z" transform="translate(-116.846 -33.112)" fill="#050605"/>
    <path id="Path_26" data-name="Path 26" d="M364.587,104.635v-3.871h.483v3.442h1.8v.429Z" transform="translate(-119.805 -33.112)" fill="#050605"/>
    <path id="Path_27" data-name="Path 27" d="M371.946,104.635v-3.871h2.538v.429h-2.055v1.247h2.014v.43h-2.014v1.336h2.055v.429Z" transform="translate(-122.223 -33.112)" fill="#050605"/>
    <path id="Path_28" data-name="Path 28" d="M385.824,104.635v-3.442H384.6v-.429h2.937v.429h-1.231v3.442Z" transform="translate(-126.381 -33.112)" fill="#050605"/>
    <path id="Path_29" data-name="Path 29" d="M395.621,104.635v-1.777h-2.264v1.777h-.483v-3.871h.483v1.665h2.264v-1.665h.481v3.871Z" transform="translate(-129.101 -33.112)" fill="#050605"/>
    <path id="Path_30" data-name="Path 30" d="M401.984,104.635v-3.871h2.538v.429h-2.055v1.247h2.014v.43h-2.014v1.336h2.055v.429Z" transform="translate(-132.094 -33.112)" fill="#050605"/>
    <path id="Path_31" data-name="Path 31" d="M418.343,104.635v-3.222l-1.317,3.222h-.2l-1.312-3.222v3.222h-.483v-3.871h.692l1.2,2.949,1.206-2.949h.69v3.871Z" transform="translate(-136.382 -33.112)" fill="#050605"/>
    <rect id="Rectangle_4" data-name="Rectangle 4" width="0.483" height="3.871" transform="translate(285.331 67.652)" fill="#050605"/>
    <path id="Path_32" data-name="Path 32" d="M432.736,104.635l-2.257-3.123v3.123H430v-3.871h.494l2.229,3.059v-3.059h.482v3.871Z" transform="translate(-141.299 -33.112)" fill="#050605"/>
    <path id="Path_33" data-name="Path 33" d="M439.071,104.635v-3.871H440.4a1.936,1.936,0,1,1,0,3.871Zm.483-.429h.842a1.507,1.507,0,0,0,0-3.013h-.842Z" transform="translate(-144.281 -33.112)" fill="#050605"/>
    <path id="Path_34" data-name="Path 34" d="M225.239,89.54V78.9h7.289v1.642h-5.423V83.3h5.311v1.644h-5.311V89.54Z" transform="translate(-74.015 -25.927)" fill="#050605"/>
    <path id="Path_35" data-name="Path 35" d="M250.949,89.54V78.9h7.289v1.642h-5.423V83.3h5.311v1.644h-5.311V87.9h5.423V89.54Z" transform="translate(-82.463 -25.927)" fill="#050605"/>
    <path id="Path_36" data-name="Path 36" d="M277.03,86.527a4.59,4.59,0,0,0,3.366,1.468c1.532,0,2.138-.75,2.138-1.452,0-.957-1.133-1.244-2.424-1.579-1.739-.43-3.781-.941-3.781-3.19,0-1.755,1.548-3.111,3.876-3.111a5.538,5.538,0,0,1,3.988,1.484l-1.069,1.388a4.322,4.322,0,0,0-3.078-1.212c-1.1,0-1.8.526-1.8,1.324,0,.829,1.085,1.1,2.345,1.419,1.754.446,3.844.989,3.844,3.3,0,1.77-1.244,3.285-4.115,3.285a5.689,5.689,0,0,1-4.323-1.691Z" transform="translate(-90.693 -25.849)" fill="#050605"/>
    <path id="Path_37" data-name="Path 37" d="M305.447,89.54v-9h-3.222V78.9h8.311v1.642h-3.222v9Z" transform="translate(-99.313 -25.927)" fill="#050605"/>
    <rect id="Rectangle_5" data-name="Rectangle 5" width="1.866" height="10.639" transform="translate(221.099 52.974)" fill="#050605"/>
    <path id="Path_38" data-name="Path 38" d="M350.339,89.54,346.16,78.9h2.121l3.222,8.613,3.222-8.613h2.122L352.667,89.54Z" transform="translate(-113.75 -25.927)" fill="#050605"/>
    <path id="Path_39" data-name="Path 39" d="M381.964,89.541l-.781-2.042h-5.04l-.781,2.042h-2.042L377.5,78.9h2.329l4.179,10.639Zm-3.3-9.06-1.993,5.376h3.987Z" transform="translate(-122.675 -25.928)" fill="#050605"/>
    <path id="Path_40" data-name="Path 40" d="M403.329,89.54V78.9H405.2v9h4.689V89.54Z" transform="translate(-132.536 -25.927)" fill="#050605"/>
    <path id="Path_41" data-name="Path 41" d="M135.216,32.168a1.768,1.768,0,0,1-1.12-1.995,1.7,1.7,0,0,1,1.459-1.286c-.013-.193-.027-.385-.043-.577v0a1.413,1.413,0,0,1-.191-.156c-1.812-.022-2.716-.914-2.808-1.8a1.6,1.6,0,0,1,.884-1.568,1.762,1.762,0,0,1,1.378-.986c-.037-.158-.078-.315-.119-.471q-.133-.09-.265-.191c-.056,0-.109,0-.162,0a2.7,2.7,0,0,1-2.695-1.437,1.582,1.582,0,0,1,.109-1.313,1.532,1.532,0,0,1,.173-1.148,1.465,1.465,0,0,1,1.142-.669,29.5,29.5,0,0,0-51.288-4.218A195.938,195.938,0,0,0,95.933,39.414c8.386-9.269,15.428-18.968,19.364-27.962l2.935-6.707,2.739,6.792a118.823,118.823,0,0,0,14.091,25.026,29.146,29.146,0,0,0,.456-3.279v0a.589.589,0,0,1-.05-.078,2.017,2.017,0,0,1-.253-1.035" transform="translate(-26.837 -0.441)" fill="#ffc100"/>
    <path id="Path_42" data-name="Path 42" d="M175.4,49.28c.927.849-.035,1.719-.557.787-.7,1.029-1.382.277-1.909-.467-.888-1.259-1.317-.181-1.074.152.853.146,1.111.579,1.185,1.105a.906.906,0,0,0,.843.624c1.421.017,2.553,1.764,1.434,2.225-.475,1.126-1.609.929-2.163-.532-1.284-.066-1.638-1.181-2.2-2.7a.408.408,0,0,1-.05,0,3.1,3.1,0,0,1-1.107-.091c-.555-.177-.85-.606-1.023-1.436a.21.21,0,0,0-.125-.03c-.24.008-.585.285-1.1-.064a2.328,2.328,0,0,1-.543-.547c-.329-.177-.855.68-1.38-.22-.211-.111-.608.249-1.068.282-.428.031-.923-.234-.992-1.083-.886-.222-1.272-.71-1.01-1.549a2.132,2.132,0,0,0-.684-.54c-.031-.014-.06-.031-.087-.045-.779-.436-.446-1.045-.01-1.157a.518.518,0,0,1,.277,0,2.7,2.7,0,0,1,1.415.709,5.675,5.675,0,0,1,1.309.579c.54.38.715.972,1.107,1.132.51.209.949-.043,1.36-.054a1.514,1.514,0,0,1,.347.035,2.034,2.034,0,0,1,.877.454c.083.071.152.132.212.185.371.333.406.366,1.068.111l.022-.008c.541-.207.666-.308,1.079-.205a7.024,7.024,0,0,1,.675.226c1.233-.162,1.317-.378,2.289.5.766-.021,1.231-.209,1.764.392.43.485.612,1.178-.185,1.223" transform="translate(-53.011 -14.452)" fill="#2a8835"/>
    <path id="Path_43" data-name="Path 43" d="M174.847,31.36c0,.657-.754,1.311-1.8,1.3h0a2.742,2.742,0,0,1-.984-.205,1.808,1.808,0,0,1-1.537,1.105c-.053,0-.107,0-.158,0-.027,0-.054,0-.081,0a1.78,1.78,0,0,1-.887-.351,1.993,1.993,0,0,1-.181-.146,1.536,1.536,0,0,1-.91.633,1.823,1.823,0,0,1-.754.018,2.5,2.5,0,0,1-1.091-.5,2.837,2.837,0,0,1-.522-.538,3.909,3.909,0,0,1-1.179.23,1.973,1.973,0,0,1-2.239-1.711,2.371,2.371,0,0,1-2.882-.524,3.161,3.161,0,0,1-.461.041c-1.267.023-2.329-.7-1.415-1.452-.4-.806-.1-1.015.561-.922a6.678,6.678,0,0,1,1.174.316c.365-.012,1.169-2.044,3.307-.142a1.808,1.808,0,0,1,.661-.374,1.666,1.666,0,0,1,1.746.425,1.7,1.7,0,0,1,.394.756c.119.073.489-.211.953-.23a1.251,1.251,0,0,1,1.085.585,2.754,2.754,0,0,1,.16.23c.079.008.179-.271.391-.54a1.3,1.3,0,0,1,.509-.407h0a1.308,1.308,0,0,1,.577-.072,2.24,2.24,0,0,1,.787.271c1.072-.631,2-.715,2.562.616,1.8-1.278,3.274-.3,1.752.8a.99.99,0,0,1,.456.793" transform="translate(-51.73 -9.101)" fill="#2a8835"/>
    <path id="Path_44" data-name="Path 44" d="M182.83,39.387c.415,1.709-1.409,2.317-3.028,1.668-.91.91-1.861,1.565-3.063.694a2.062,2.062,0,0,1-2.665-.128,1.993,1.993,0,0,1-.156.409v0a1.49,1.49,0,0,1-.193.294l-.006,0c-.006,0-.006,0,0,.009v0a1,1,0,0,1-1.1.3,2.4,2.4,0,0,1-1.01-.694,1.08,1.08,0,0,1-.074-.08.928.928,0,0,1-1.027.093v0a.844.844,0,0,1,.029-1.436.735.735,0,0,1,.1-.066,2.072,2.072,0,0,1,.752-.248,3.558,3.558,0,0,1-.24-.715,1.669,1.669,0,0,1-.008-.791.721.721,0,0,1,.538-.526,1.806,1.806,0,0,1,.846.022l.212-.043a2.89,2.89,0,0,1,.867-.922,1.682,1.682,0,0,1,.867-.271h0c.045,0,.091,0,.138,0a.5.5,0,0,0,.056,0h0a3.86,3.86,0,0,1,1.487.5,1.89,1.89,0,0,1,1.208-1.4h0a1.728,1.728,0,0,1,.583-.072h0a1,1,0,0,1,.107.006c.006-.012.01-.025.016-.037.263-.616.764-1.428,1.713-1.2a2.967,2.967,0,0,1,1.2.7c1.555-1.637,3.022-.057,2.015,1.615,1.913.608,1.171,2.087-.183,2.326" transform="translate(-55.905 -11.406)" fill="#2a8835"/>
    <path id="Path_45" data-name="Path 45" d="M165.889,38.455a.424.424,0,0,1-.017.039l-2.156-.846c-.117-.054-.193.078-.085.15.789.489,1.38.816,1.917,1.1a1.506,1.506,0,0,1-1.8-.475.735.735,0,0,1-.9.072.332.332,0,0,1-.033.035c-.686.738-1.315.442-1.543-.091-.169.015-.327.023-.477.023-1.911,0-2.313-1.189-1.072-1.45a.694.694,0,0,1,.706-.74,5.7,5.7,0,0,1,1.944.364,1.342,1.342,0,0,1,.71-.555,2.215,2.215,0,0,1,1.839.651h0q.253.194.512.419l0,0,.072.062a.558.558,0,0,1,.082,0,1.194,1.194,0,0,1,1.075.421c.218.343,0,.777-.779.824" transform="translate(-52.253 -11.841)" fill="#2a8835" fill-rule="evenodd"/>
    <path id="Path_46" data-name="Path 46" d="M175.481,46.054l-.006.008v0c-.006,0-.006,0,0-.008Z" transform="translate(-57.66 -15.132)" fill="#fff" fill-rule="evenodd"/>
    <path id="Path_47" data-name="Path 47" d="M175.481,46.054l-.006.008v0c-.006,0-.006,0,0-.008Z" transform="translate(-57.66 -15.132)" fill="#fff" fill-rule="evenodd"/>
    <path id="Path_48" data-name="Path 48" d="M173.66,20.83c.351,1.256-.653,2.083-1.956,1.613a3.162,3.162,0,0,1-.189.581,1.768,1.768,0,0,1-1.061,1.051c-.023-.753-.052-1.415-.075-1.972-.022-.214-.3-.226-.307.029-.029.569-.052,1.247-.081,2.018v0a1.846,1.846,0,0,1-1.078-.352,1.826,1.826,0,0,1-.514-.553,1.451,1.451,0,0,1-.579.323,1.742,1.742,0,0,1-1.758-.432,1.443,1.443,0,0,1-.329-1.158c-1.136,0-2-1.942-.6-2.342-.415-1.366,1.8-1.888,2.8-.784.013-.413.512-.479.7-.424.039-1.869,1.635-1.869,2.481-.626.226.413.867.287.857.012.177-2.334,3.7-2.508,2.872.411,1.3.674.82,2.876-1.189,2.6" transform="translate(-54.026 -5.274)" fill="#2a8835" fill-rule="evenodd"/>
    <path id="Path_49" data-name="Path 49" d="M169.736,40.7c-.208-.117-.4-.224-.59-.322l-.316-.164-.234-.122c-.269-.138-.534-.271-.814-.417-.536-.281-1.128-.608-1.917-1.1-.108-.072-.033-.2.085-.15l2.157.847.6.236.45.175.371.146.2.078a1.661,1.661,0,0,0,.009.791" transform="translate(-54.487 -12.624)" fill="#050605" fill-rule="evenodd"/>
    <path id="Path_50" data-name="Path 50" d="M173.2,28.414v0c-.212.269-.312.549-.39.54a2.736,2.736,0,0,0-.16-.23c.006-.2.012-.4.016-.6.007-.277.019-.545.025-.8v0c.006-.1.006-.195.006-.291v0c.029-.771.052-1.448.081-2.018.012-.254.285-.242.308-.029.022.557.051,1.219.074,1.973,0,.035.006.061.006.1v0c.012.324.018.659.029,1.019v0c.006.109.006.22.006.335" transform="translate(-56.735 -8.158)" fill="#050605" fill-rule="evenodd"/>
    <path id="Path_51" data-name="Path 51" d="M173.291,38.692v.128a1.8,1.8,0,0,0-.847-.023c0-.142.007-.285.013-.427v0c0-.214.006-.417.006-.624v0a.148.148,0,0,0,.006-.051v0c0-.354.01-.7.023-1.042a1.812,1.812,0,0,0,.754-.018c.006.236.012.479.016.719v0c.006.128.006.258.012.386,0,.082,0,.156.007.238,0,.238.006.479.01.723" transform="translate(-56.666 -12.035)" fill="#050605" fill-rule="evenodd"/>
    <path id="Path_52" data-name="Path 52" d="M173.357,47.639v0c-.661.255-.7.222-1.068-.111.006-.22.006-.44.012-.651v0c.006-.238.006-.469.013-.7v0c.006-.23.006-.468.01-.7a2.4,2.4,0,0,0,1.01.694v.308c0,.267.011.538.017.806v.006c0,.121.006.234.006.347" transform="translate(-56.615 -14.944)" fill="#050605" fill-rule="evenodd"/>
    <path id="Path_53" data-name="Path 53" d="M173.506,63.709q-.767-.838-1.52-1.689c.047-2.837.092-5.773.14-8.651v-.006c.012-.678.025-1.356.035-2.024a.206.206,0,0,1,.125.031c.173.83.469,1.26,1.023,1.436.013.372.019.75.025,1.126v0c.06,3.274.117,6.609.173,9.774" transform="translate(-56.515 -16.87)" fill="#050605" fill-rule="evenodd"/>
    <path id="Path_54" data-name="Path 54" d="M175.481,46.054l-.006.008v0c-.006,0-.006,0,0-.008Z" transform="translate(-57.66 -15.132)" fill="#2a8835" fill-rule="evenodd"/>
    <path id="Path_55" data-name="Path 55" d="M199.618,74.272l.006,0s0,0,0,.008,0,0-.006-.006" transform="translate(-65.596 -24.406)" fill="#fff" fill-rule="evenodd"/>
    <path id="Path_56" data-name="Path 56" d="M199.625,74.27s0,0,0,.008,0,0-.006-.006Z" transform="translate(-65.596 -24.406)" fill="#fff" fill-rule="evenodd"/>
    <path id="Path_57" data-name="Path 57" d="M203.555,52.2a1.31,1.31,0,0,1-.306,1.064,1.59,1.59,0,0,1-1.611.394,1.3,1.3,0,0,1-.53-.3,1.738,1.738,0,0,1-1.461.83v0c-.027-.709-.047-1.331-.074-1.851-.01-.234-.261-.224-.281-.027-.023.51-.047,1.116-.07,1.808v0a1.626,1.626,0,0,1-.974-.967v0a2.858,2.858,0,0,1-.173-.53c-1.2.432-2.116-.328-1.794-1.479-1.842.251-2.278-1.768-1.09-2.387-.76-2.679,2.471-2.516,2.633-.376-.008.252.579.366.787-.012.775-1.141,2.239-1.141,2.274.573.179-.049.637.013.647.389.925-1.011,2.952-.532,2.57.723,1.282.365.491,2.148-.548,2.146" transform="translate(-63.923 -15.365)" fill="#2a8835" fill-rule="evenodd"/>
    <path id="Path_58" data-name="Path 58" d="M209.183,67.288c-.209.487-.787.76-1.415.082l-.029-.033a.673.673,0,0,1-.824-.063,1.384,1.384,0,0,1-1.654.433c.491-.256,1.033-.557,1.758-1,.1-.066.031-.189-.078-.14l-1.979.776c0-.01-.01-.022-.014-.034-.715-.044-.914-.442-.713-.756a1.089,1.089,0,0,1,.986-.387.428.428,0,0,1,.072,0l.064-.055h0c.158-.138.316-.267.471-.386h0a2.044,2.044,0,0,1,1.691-.6,1.241,1.241,0,0,1,.649.51c1.253-.382,2.393-.639,2.43.347,1.229.256.7,1.5-1.419,1.309" transform="translate(-67.089 -21.387)" fill="#2a8835" fill-rule="evenodd"/>
    <path id="Path_59" data-name="Path 59" d="M206.681,67.422c-.725.448-1.268.748-1.758,1-.257.136-.5.257-.746.384-.072.035-.142.072-.216.109l-.29.152c-.17.091-.349.187-.54.294a1.518,1.518,0,0,0,.006-.724l.183-.072.341-.133.413-.162.551-.216,1.979-.776c.109-.05.177.074.078.14" transform="translate(-66.75 -22.106)" fill="#050605" fill-rule="evenodd"/>
    <path id="Path_60" data-name="Path 60" d="M201.969,58.383v0a1.91,1.91,0,0,0-.146.209c-.07.008-.164-.248-.36-.495v0c0-.107,0-.207.006-.308v0c.011-.331.015-.637.027-.935,0-.033,0-.055,0-.088v0c.023-.692.048-1.3.07-1.808.021-.2.271-.207.282.027.026.52.047,1.142.074,1.851v0c0,.088,0,.177.006.265v0c0,.234.016.477.02.731v0c.007.181.011.36.017.547" transform="translate(-66.202 -18.009)" fill="#050605" fill-rule="evenodd"/>
    <path id="Path_61" data-name="Path 61" d="M202.026,67.618a1.687,1.687,0,0,0-.777.023v-.117c.007-.224.011-.446.011-.665.006-.074.006-.142.006-.218v0c0-.118,0-.236.01-.354.006-.222.01-.446.017-.661a1.612,1.612,0,0,0,.69.016c.012.313.016.635.022.957v0a.2.2,0,0,0,0,.048v0c0,.189.007.378.007.573v0c0,.131.01.263.01.392" transform="translate(-66.131 -21.564)" fill="#050605" fill-rule="evenodd"/>
    <path id="Path_62" data-name="Path 62" d="M202.168,87.433c-.456-.292-.908-.587-1.36-.89.042-2.239.081-4.54.121-6.808,0-.347.01-.692.021-1.033.01-1,.033-1.993.047-2.973,0-.1.006-.207.006-.318V75.4c.006-.244.01-.495.017-.739v-.284a2.217,2.217,0,0,0,.925-.634c.006.214.006.429.01.643s.006.423.012.641v0c0,.2,0,.4.01.6.011.569.021,1.142.027,1.721.011.612.021,1.235.031,1.857.045,2.734.091,5.528.134,8.219" transform="translate(-65.987 -24.234)" fill="#050605" fill-rule="evenodd"/>
    <path id="Path_63" data-name="Path 63" d="M197.876,70.51a.848.848,0,0,1-.943-.082c-.022.024-.043.049-.067.072v0a2.217,2.217,0,0,1-.925.634.908.908,0,0,1-1.005-.275s0,0,0-.008l-.006,0a1.233,1.233,0,0,1-.179-.269,1.819,1.819,0,0,1-.142-.376,1.884,1.884,0,0,1-2.443.118c-1.1.8-1.977.2-2.81-.635-1.485.6-3.158.037-2.778-1.53-1.241-.22-1.921-1.576-.167-2.132-.924-1.535.422-2.985,1.847-1.481a2.709,2.709,0,0,1,1.1-.639c.869-.211,1.329.532,1.572,1.1h0c0,.012.01.025.014.037a.813.813,0,0,1,.1-.006h0a1.2,1.2,0,0,1,.526.064h0a1.721,1.721,0,0,1,1.117,1.29,3.529,3.529,0,0,1,1.364-.458h0a.57.57,0,0,0,.058,0c.043,0,.078,0,.119,0h0a1.533,1.533,0,0,1,.795.248v0a2.616,2.616,0,0,1,.793.845l.2.041a1.687,1.687,0,0,1,.777-.023.665.665,0,0,1,.493.483,1.506,1.506,0,0,1-.006.723,3.277,3.277,0,0,1-.22.657,1.877,1.877,0,0,1,.69.23.5.5,0,0,1,.091.06.772.772,0,0,1,.027,1.315" transform="translate(-60.907 -20.989)" fill="#2a8835" fill-rule="evenodd"/>
    <path id="Path_64" data-name="Path 64" d="M206.248,60.163a2.173,2.173,0,0,1-2.644.481,2,2,0,0,1-.4.929,1.966,1.966,0,0,1-1.654.641h0a3.624,3.624,0,0,1-1.08-.209,2.436,2.436,0,0,1-.479.493,2.263,2.263,0,0,1-1,.454,1.633,1.633,0,0,1-.69-.016,1.4,1.4,0,0,1-.836-.579,1.726,1.726,0,0,1-.165.134,1.585,1.585,0,0,1-.824.324h-.015a.6.6,0,0,0-.06,0c-.048,0-.084,0-.133,0h-.006a1.656,1.656,0,0,1-1.405-1.014,2.535,2.535,0,0,1-.906.187h0C193,62,192.3,61.4,192.3,60.8a.907.907,0,0,1,.42-.73c-1.4-1-.04-1.9,1.608-.729.514-1.222,1.366-1.144,2.349-.565a2.007,2.007,0,0,1,.721-.246,1.048,1.048,0,0,1,1,.433v0c.195.246.289.5.359.5a1.947,1.947,0,0,1,.146-.21v0a1.153,1.153,0,0,1,.994-.536c.426.018.767.277.876.211a1.552,1.552,0,0,1,.361-.694h0a1.521,1.521,0,0,1,1.6-.389,1.729,1.729,0,0,1,.608.343c1.962-1.746,2.7.119,3.032.13,1.259-.433,2.134-.54,1.59.555.939.779-.394,1.512-1.719,1.294" transform="translate(-63.139 -18.875)" fill="#2a8835" fill-rule="evenodd"/>
    <path id="Path_65" data-name="Path 65" d="M199.625,74.27s0,0,0,.008,0,0-.006-.006Z" transform="translate(-65.596 -24.406)" fill="#2a8835" fill-rule="evenodd"/>
    <path id="Path_66" data-name="Path 66" d="M180.138,77.587H132.509l-3.339-2.473a69.786,69.786,0,0,1-9.924-9.708,195.6,195.6,0,0,1-13.664-17.789C114.22,38.16,121.7,28,125.974,18.24a123.3,123.3,0,0,0,15.917,27.706c2.221,2.931,4.6,5.8,7.11,8.566q.54.591,1.087,1.177c.555.591,1.115,1.181,1.685,1.762q.561.577,1.134,1.145a97.851,97.851,0,0,0,15.543,12.7q.5.329,1,.645.742.468,1.491.92c.341.205.682.406,1.025.606a73.49,73.49,0,0,0,8.17,4.117" transform="translate(-34.695 -5.994)" fill="#0095d6"/>
    <path id="Path_67" data-name="Path 67" d="M92.645,72.035H0C19,62.449,41.4,27.281,46.461,1.344a110.4,110.4,0,0,0,6.483,16.231A204.481,204.481,0,0,0,66.952,41.744c.305.458.614.912.92,1.362l.869,1.268c4.057,5.886,8.21,11.322,12.106,15.907a79.017,79.017,0,0,0,11.8,11.755" transform="translate(0 -0.442)" fill="#2a8835"/>
    <path id="Path_68" data-name="Path 68" d="M96.907,20.269l3.985,4.252s2.316-1.519,4.482-3.015c-3.608.173-4.246,1.045-4.246,1.045Z" transform="translate(-31.844 -6.66)" fill="#050605"/>
    <path id="Path_69" data-name="Path 69" d="M151.73,7.216l5.333,2.35S158.6,7.26,160,5.036c-3.252,1.573-3.5,2.626-3.5,2.626Z" transform="translate(-49.859 -1.655)" fill="#050605"/>
  </g>
</svg>
