<svg xmlns="http://www.w3.org/2000/svg" width="518.241" height="124.574" viewBox="0 0 518.241 124.574">
  <g id="Group_285" data-name="Group 285" transform="translate(-323.843 -81.792)">
    <g id="Group_270" data-name="Group 270" transform="translate(585.596 81.792)">
      <path id="Path_18402" data-name="Path 18402" d="M484.465,105.961c0-32.224,47.8-32.224,47.8,0C532.27,138.252,484.465,138.252,484.465,105.961Zm35.62,0c0-16.779-23.37-16.779-23.37,0C496.715,122.871,520.085,122.871,520.085,105.961Z" transform="translate(-484.465 -81.793)" fill="#d62427"/>
      <path id="Path_18403" data-name="Path 18403" d="M515.864,105.961c0-32.224,47.8-32.224,47.8,0C563.667,138.252,515.864,138.252,515.864,105.961Zm35.62,0c0-16.779-23.37-16.779-23.37,0C528.114,122.871,551.484,122.871,551.484,105.961Z" transform="translate(-464.695 -81.793)" fill="#d62427"/>
      <path id="Path_18404" data-name="Path 18404" d="M545.777,92.935V82.282H580.4V92.935H569.014v35.954H557.228V92.935Z" transform="translate(-445.862 -81.484)" fill="#d62427"/>
      <path id="Path_18405" data-name="Path 18405" d="M595.388,128.889H583.6V109.314L567.958,84.079v-1.8h12.85L589.264,97.8h.465l8.456-15.514H611.1v1.8l-15.713,25.235Z" transform="translate(-431.896 -81.484)" fill="#d62427"/>
    </g>
    <g id="Group_271" data-name="Group 271" transform="translate(586.98 138.198)">
      <path id="Path_18406" data-name="Path 18406" d="M485.314,116.405h6.862V138.56h11.45v5.881H485.314Z" transform="translate(-485.314 -116.405)"/>
      <path id="Path_18407" data-name="Path 18407" d="M505.116,116.405h6.862v28.036h-6.862Z" transform="translate(-472.846 -116.405)"/>
      <path id="Path_18408" data-name="Path 18408" d="M526.21,122.286H517.7v-5.881h23.88v5.881h-8.51v22.155H526.21Z" transform="translate(-464.923 -116.405)"/>
      <path id="Path_18409" data-name="Path 18409" d="M540.727,116.405h17.566v5.881h-10.7v5.1h8.547v5.881h-8.547v5.295h11.253v5.881H540.727Z" transform="translate(-450.425 -116.405)"/>
      <path id="Path_18410" data-name="Path 18410" d="M561.131,116.405h9.763a14.5,14.5,0,0,1,5.451.667c3.175,1.216,5.176,4.077,5.176,8.156,0,2.979-1.413,6.233-4.2,7.645v.08a15.8,15.8,0,0,1,1.059,1.685l5.449,9.8h-7.646l-4.98-9.45h-3.215v9.45h-6.861Zm9.841,12.7c2.2,0,3.569-1.216,3.569-3.452,0-2.117-.785-3.372-4.235-3.372h-2.314v6.823Z" transform="translate(-437.578 -116.405)"/>
      <path id="Path_18411" data-name="Path 18411" d="M599.239,138.56h-8.745l-1.685,5.881h-7.058l9.529-28.036h7.214l9.528,28.036h-7.058ZM594.847,122.8s-.627,3.057-1.136,4.824L592.1,133.07h5.529l-1.569-5.449c-.51-1.767-1.137-4.824-1.137-4.824Z" transform="translate(-424.595 -116.405)"/>
      <path id="Path_18412" data-name="Path 18412" d="M606.053,116.405h9.763a14.49,14.49,0,0,1,5.45.667c3.176,1.216,5.176,4.077,5.176,8.156,0,2.979-1.411,6.233-4.195,7.645v.08a16.2,16.2,0,0,1,1.059,1.685l5.449,9.8h-7.646l-4.98-9.45h-3.215v9.45h-6.861Zm9.841,12.7c2.2,0,3.569-1.216,3.569-3.452,0-2.117-.786-3.372-4.235-3.372h-2.314v6.823Z" transform="translate(-409.294 -116.405)"/>
      <path id="Path_18413" data-name="Path 18413" d="M635.541,132.952l-9.253-16.547h7.8l3.176,6.743c.9,1.921,1.687,4.04,1.687,4.04h.078s.784-2.119,1.687-4.04l3.135-6.743h7.8L642.4,132.952v11.489h-6.862Z" transform="translate(-396.554 -116.405)"/>
    </g>
    <g id="Group_272" data-name="Group 272" transform="translate(586.98 173.689)">
      <path id="Path_18414" data-name="Path 18414" d="M485.314,156.868V138.355H498v2.858h-9.435v4.8h9.243v2.86h-9.243v7.993Z" transform="translate(-485.314 -138.076)"/>
      <path id="Path_18415" data-name="Path 18415" d="M503.745,156.868V138.355h12.683v2.858h-9.436v4.8h9.243v2.86h-9.243v5.135h9.436v2.858Z" transform="translate(-473.709 -138.076)"/>
      <path id="Path_18416" data-name="Path 18416" d="M523.5,151.868a7.984,7.984,0,0,0,5.855,2.554c2.666,0,3.72-1.3,3.72-2.526,0-1.665-1.97-2.164-4.219-2.748-3.025-.75-6.577-1.638-6.577-5.55,0-3.054,2.692-5.414,6.743-5.414a9.634,9.634,0,0,1,6.939,2.583l-1.859,2.413a7.521,7.521,0,0,0-5.357-2.109c-1.915,0-3.135.916-3.135,2.3,0,1.442,1.887,1.913,4.079,2.469,3.054.777,6.69,1.721,6.69,5.746,0,3.082-2.166,5.717-7.161,5.717a9.9,9.9,0,0,1-7.522-2.941Z" transform="translate(-462.405 -138.184)"/>
      <path id="Path_18417" data-name="Path 18417" d="M546.11,156.868V141.213H540.5v-2.858h14.461v2.858h-5.607v15.654Z" transform="translate(-450.565 -138.076)"/>
      <path id="Path_18418" data-name="Path 18418" d="M559.923,156.868V138.355h3.248v18.513Z" transform="translate(-438.338 -138.076)"/>
      <path id="Path_18419" data-name="Path 18419" d="M579.273,156.868,572,138.355h3.691l5.606,14.988,5.607-14.988H590.6l-7.271,18.513Z" transform="translate(-430.735 -138.076)"/>
      <path id="Path_18420" data-name="Path 18420" d="M606.512,156.868l-1.359-3.553h-8.771l-1.359,3.553h-3.553l7.271-18.513h4.051l7.271,18.513ZM600.768,141.1l-3.47,9.354h6.939Z" transform="translate(-418.475 -138.076)"/>
      <path id="Path_18421" data-name="Path 18421" d="M612.984,156.868V138.355h3.248v15.654h8.16v2.858Z" transform="translate(-404.93 -138.076)"/>
    </g>
    <g id="Group_284" data-name="Group 284" transform="translate(323.843 83.361)">
      <g id="Group_282" data-name="Group 282">
        <g id="Group_273" data-name="Group 273" transform="translate(95.41)">
          <path id="Path_18422" data-name="Path 18422" d="M475.565,136.392a3.078,3.078,0,0,1-1.949-3.471,2.957,2.957,0,0,1,2.539-2.237c-.021-.336-.047-.668-.075-1.005v0a2.2,2.2,0,0,1-.332-.272c-3.153-.039-4.726-1.591-4.887-3.127a2.785,2.785,0,0,1,1.537-2.728,3.068,3.068,0,0,1,2.4-1.714c-.064-.275-.135-.548-.207-.82-.153-.1-.308-.213-.461-.332-.1,0-.189,0-.282,0-2.3,0-4.144-.983-4.69-2.5a2.756,2.756,0,0,1,.189-2.285,2.663,2.663,0,0,1,.3-2,2.558,2.558,0,0,1,1.988-1.165A51.329,51.329,0,0,0,382.39,105.4,340.784,340.784,0,0,0,407.212,149c14.592-16.128,26.845-33,33.694-48.652l5.107-11.671,4.765,11.816A206.772,206.772,0,0,0,475.3,144.039a50.392,50.392,0,0,0,.794-5.705v0a1.214,1.214,0,0,1-.086-.137A3.513,3.513,0,0,1,475.565,136.392Z" transform="translate(-382.39 -82.755)" fill="#ffb807"/>
          <path id="Path_18423" data-name="Path 18423" d="M463.986,122.542c1.612,1.476-.06,2.992-.968,1.369-1.219,1.791-2.405.482-3.321-.812-1.545-2.192-2.291-.314-1.869.264,1.483.254,1.933,1.009,2.061,1.923a1.577,1.577,0,0,0,1.467,1.087c2.474.029,4.442,3.07,2.495,3.872-.826,1.959-2.8,1.615-3.764-.926-2.234-.116-2.849-2.057-3.822-4.693a.735.735,0,0,1-.085,0,5.427,5.427,0,0,1-1.928-.158c-.965-.306-1.48-1.054-1.78-2.5a.37.37,0,0,0-.218-.054c-.417.015-1.018.5-1.916-.111a4.062,4.062,0,0,1-.944-.95c-.572-.308-1.486,1.183-2.4-.383-.368-.194-1.058.432-1.858.489-.745.054-1.605-.407-1.727-1.884-1.54-.385-2.213-1.237-1.758-2.694a3.691,3.691,0,0,0-1.19-.94c-.054-.026-.1-.054-.152-.08-1.354-.758-.774-1.819-.016-2.013a.9.9,0,0,1,.482,0,4.711,4.711,0,0,1,2.462,1.234,9.87,9.87,0,0,1,2.277,1.009c.94.662,1.245,1.69,1.928,1.969.887.365,1.651-.075,2.366-.093a2.532,2.532,0,0,1,.6.062,3.536,3.536,0,0,1,1.527.789c.143.122.264.23.368.323.647.579.707.636,1.859.192l.039-.015c.939-.36,1.157-.536,1.876-.357.287.072.655.2,1.177.393,2.145-.282,2.291-.657,3.981.873,1.335-.036,2.141-.365,3.072.683C465.055,121.257,465.373,122.462,463.986,122.542Z" transform="translate(-346.436 -63.51)" fill="#078348"/>
          <path id="Path_18424" data-name="Path 18424" d="M467.015,108.022c.007,1.144-1.312,2.28-3.127,2.255h0a4.749,4.749,0,0,1-1.711-.357,3.15,3.15,0,0,1-2.674,1.923c-.093,0-.186-.008-.275-.008a1.32,1.32,0,0,0-.139,0,3.088,3.088,0,0,1-1.545-.613,3.375,3.375,0,0,1-.315-.253,2.669,2.669,0,0,1-1.584,1.1,3.167,3.167,0,0,1-1.312.033,4.345,4.345,0,0,1-1.9-.865,4.941,4.941,0,0,1-.908-.935,6.808,6.808,0,0,1-2.052.4,3.729,3.729,0,0,1-3.142-1.219,3.783,3.783,0,0,1-.755-1.758c-1.472.419-2.867,1.126-5.014-.911a5.834,5.834,0,0,1-.8.072c-2.2.039-4.053-1.212-2.462-2.528-.693-1.4-.168-1.767.976-1.605a11.546,11.546,0,0,1,2.042.551c.636-.021,2.034-3.557,5.754-.248a3.166,3.166,0,0,1,1.15-.65,2.9,2.9,0,0,1,3.039.74,2.959,2.959,0,0,1,.686,1.315c.207.125.851-.368,1.659-.4a2.174,2.174,0,0,1,1.887,1.019,4.731,4.731,0,0,1,.279.4c.135.013.311-.473.68-.94a2.272,2.272,0,0,1,.886-.709h.007a2.273,2.273,0,0,1,1.005-.124,3.9,3.9,0,0,1,1.369.471c1.866-1.1,3.481-1.243,4.457,1.072,3.124-2.223,5.7-.518,3.049,1.387A1.721,1.721,0,0,1,467.015,108.022Z" transform="translate(-348.196 -70.861)" fill="#078348"/>
          <path id="Path_18425" data-name="Path 18425" d="M467.909,114.815c.722,2.974-2.453,4.032-5.27,2.9-1.582,1.584-3.238,2.725-5.329,1.208a3.587,3.587,0,0,1-4.636-.22,3.462,3.462,0,0,1-.272.711v0a2.483,2.483,0,0,1-.336.512l-.011-.008c-.01.008-.01.008,0,.015v.008a1.739,1.739,0,0,1-1.905.518,4.189,4.189,0,0,1-1.758-1.209c-.042-.042-.085-.09-.129-.139a1.614,1.614,0,0,1-1.788.16v0a1.584,1.584,0,0,1,.227-2.612,3.605,3.605,0,0,1,1.307-.433,6.067,6.067,0,0,1-.417-1.243,2.892,2.892,0,0,1-.015-1.375,1.256,1.256,0,0,1,.937-.916,3.159,3.159,0,0,1,1.472.039l.368-.075a5.036,5.036,0,0,1,1.509-1.605,2.913,2.913,0,0,1,1.509-.471h.007c.078,0,.158.007.24.007a.9.9,0,0,0,.1,0h.008a6.719,6.719,0,0,1,2.588.869,3.286,3.286,0,0,1,2.1-2.441h.007a3.011,3.011,0,0,1,1.015-.125h.007a1.439,1.439,0,0,1,.186.011c.011-.023.018-.044.029-.065.458-1.072,1.33-2.484,2.981-2.088a5.155,5.155,0,0,1,2.084,1.216c2.707-2.849,5.259-.1,3.507,2.809C471.555,111.826,470.264,114.4,467.909,114.815Z" transform="translate(-342.463 -67.694)" fill="#078348"/>
        </g>
        <g id="Group_276" data-name="Group 276" transform="translate(185.768 17.182)">
          <g id="Group_274" data-name="Group 274" transform="translate(0 23.344)">
            <path id="Path_18426" data-name="Path 18426" d="M449.8,111.837c-.011.024-.018.047-.029.068l-3.753-1.473c-.2-.093-.336.135-.147.261,1.374.851,2.4,1.419,3.336,1.91-.833.557-2.171.178-3.135-.826a1.277,1.277,0,0,1-1.561.125.408.408,0,0,1-.059.06c-1.193,1.282-2.286.768-2.684-.158-.293.026-.569.041-.83.041-3.324-.008-4.025-2.071-1.866-2.524a1.21,1.21,0,0,1,1.23-1.287,9.956,9.956,0,0,1,3.381.632,2.343,2.343,0,0,1,1.237-.965c.961-.288,2.055.261,3.2,1.134h0q.44.337.89.728l0,0,.124.108a1.051,1.051,0,0,1,.143,0,2.074,2.074,0,0,1,1.869.733C451.535,111,451.156,111.755,449.8,111.837Z" transform="translate(-437.838 -107.624)" fill="#078348" fill-rule="evenodd"/>
            <path id="Path_18427" data-name="Path 18427" d="M449.654,114.812l-.011.015v-.008c-.01-.007-.01-.007,0-.015Z" transform="translate(-430.41 -103.103)" fill="#fff" fill-rule="evenodd"/>
            <path id="Path_18428" data-name="Path 18428" d="M449.654,114.812l-.011.015v-.008c-.01-.007-.01-.007,0-.015Z" transform="translate(-430.41 -103.103)" fill="#fff" fill-rule="evenodd"/>
          </g>
          <g id="Group_275" data-name="Group 275" transform="translate(6.304)">
            <path id="Path_18429" data-name="Path 18429" d="M457.8,101.615c.611,2.184-1.138,3.624-3.4,2.8a5.625,5.625,0,0,1-.329,1.012,3.087,3.087,0,0,1-1.848,1.83c-.039-1.312-.09-2.462-.129-3.432-.039-.372-.515-.393-.536.051-.051.991-.09,2.171-.14,3.51v0a3.284,3.284,0,0,1-2.77-1.573,2.528,2.528,0,0,1-1.007.562,3.034,3.034,0,0,1-3.06-.751,2.51,2.51,0,0,1-.572-2.016c-1.977.007-3.474-3.378-1.043-4.076-.722-2.376,3.124-3.285,4.876-1.366.021-.719.89-.833,1.225-.735.069-3.254,2.845-3.254,4.319-1.092.393.719,1.507.5,1.489.023.308-4.061,6.439-4.366,5,.714C462.129,98.258,461.3,102.089,457.8,101.615Z" transform="translate(-441.706 -93.299)" fill="#078348" fill-rule="evenodd"/>
            <path id="Path_18430" data-name="Path 18430" d="M449.539,113.309c-.362-.2-.7-.389-1.027-.561l-.551-.287c-.135-.072-.274-.142-.407-.21-.468-.24-.929-.473-1.414-.725-.934-.491-1.962-1.059-3.336-1.91-.189-.126-.057-.354.147-.261l3.753,1.473,1.048.411.782.3.649.254.342.137A2.891,2.891,0,0,0,449.539,113.309Z" transform="translate(-441.072 -83.202)" fill-rule="evenodd"/>
            <path id="Path_18431" data-name="Path 18431" d="M448.574,105.832v.008c-.368.468-.544.953-.68.94a4.718,4.718,0,0,0-.279-.4c.01-.354.021-.7.028-1.04.011-.484.033-.948.044-1.395v0c.01-.168.01-.339.01-.508v0c.051-1.34.09-2.519.14-3.51.021-.443.5-.422.536-.051.039.97.09,2.12.129,3.432,0,.062.011.108.011.168v0c.021.564.031,1.147.049,1.771v0C448.574,105.439,448.574,105.632,448.574,105.832Z" transform="translate(-437.985 -89.338)" fill-rule="evenodd"/>
            <path id="Path_18432" data-name="Path 18432" d="M448.939,111.646v.222a3.159,3.159,0,0,0-1.472-.039c0-.246.01-.5.021-.743v-.008c0-.372.01-.725.01-1.085v-.008a.237.237,0,0,0,.011-.09v0c.007-.614.018-1.222.039-1.812a3.167,3.167,0,0,0,1.312-.033c.011.412.021.833.029,1.252v0c.01.222.01.451.021.673,0,.142,0,.271.011.414C448.922,110.8,448.932,111.221,448.939,111.646Z" transform="translate(-438.078 -84.013)" fill-rule="evenodd"/>
            <path id="Path_18433" data-name="Path 18433" d="M449.214,118.155v.007c-1.152.443-1.212.386-1.859-.192.011-.383.011-.766.021-1.134v0c.011-.414.011-.815.021-1.219v-.007c.011-.4.011-.815.018-1.212a4.19,4.19,0,0,0,1.758,1.209v.536c.008.464.018.935.029,1.4v.01C449.2,117.762,449.214,117.958,449.214,118.155Z" transform="translate(-438.149 -80.016)" fill-rule="evenodd"/>
            <path id="Path_18434" data-name="Path 18434" d="M449.783,140.12q-1.335-1.459-2.645-2.938c.081-4.936.16-10.045.243-15.053v-.01c.021-1.18.042-2.36.06-3.522a.37.37,0,0,1,.218.054c.3,1.444.815,2.192,1.779,2.5.021.647.033,1.305.044,1.959v0C449.586,128.81,449.687,134.611,449.783,140.12Z" transform="translate(-438.286 -77.37)" fill-rule="evenodd"/>
            <path id="Path_18435" data-name="Path 18435" d="M449.654,114.812l-.011.015v-.008c-.01-.007-.01-.007,0-.015Z" transform="translate(-436.713 -79.758)" fill="#078348" fill-rule="evenodd"/>
          </g>
        </g>
        <g id="Group_279" data-name="Group 279" transform="translate(216.539 53.055)">
          <g id="Group_277" data-name="Group 277" transform="translate(16.667 32.141)">
            <path id="Path_18436" data-name="Path 18436" d="M466.947,135.038l.011,0c.006.007.006.007,0,.015Z" transform="translate(-466.947 -135.035)" fill="#fff" fill-rule="evenodd"/>
            <path id="Path_18437" data-name="Path 18437" d="M466.958,135.035c.006.007.006.007,0,.015l-.011-.011Z" transform="translate(-466.947 -135.035)" fill="#fff" fill-rule="evenodd"/>
          </g>
          <g id="Group_278" data-name="Group 278">
            <path id="Path_18438" data-name="Path 18438" d="M479,124.777a2.28,2.28,0,0,1-.531,1.851,2.771,2.771,0,0,1-2.8.686,2.271,2.271,0,0,1-.922-.515,3.017,3.017,0,0,1-2.542,1.444v0c-.046-1.234-.081-2.316-.129-3.22-.018-.407-.453-.389-.489-.047-.039.887-.083,1.941-.122,3.147v0a2.829,2.829,0,0,1-1.693-1.683v0a4.981,4.981,0,0,1-.3-.922c-2.079.751-3.681-.572-3.121-2.573-3.205.437-3.963-3.077-1.9-4.154-1.323-4.661,4.3-4.379,4.582-.654-.015.44,1.007.636,1.369-.021,1.348-1.985,3.9-1.985,3.957,1,.311-.086,1.108.021,1.126.675,1.608-1.758,5.136-.926,4.472,1.258C482.188,121.677,480.811,124.78,479,124.777Z" transform="translate(-452.577 -115.312)" fill="#078348" fill-rule="evenodd"/>
            <path id="Path_18439" data-name="Path 18439" d="M478.94,132.287c-.363.847-1.369,1.322-2.462.143-.015-.018-.033-.041-.05-.059a1.168,1.168,0,0,1-1.432-.109,2.41,2.41,0,0,1-2.878.753c.854-.447,1.8-.968,3.061-1.747.171-.114.054-.329-.137-.243l-3.442,1.351c-.006-.018-.018-.039-.024-.062-1.245-.075-1.592-.768-1.24-1.315a1.891,1.891,0,0,1,1.714-.671.8.8,0,0,1,.125,0c.036-.033.075-.064.111-.1h0c.275-.24.551-.464.82-.673h0c1.051-.8,2.058-1.307,2.941-1.043a2.157,2.157,0,0,1,1.129.887c2.18-.665,4.165-1.111,4.229.6C483.549,130.457,482.633,132.623,478.94,132.287Z" transform="translate(-448.229 -107.04)" fill="#078348" fill-rule="evenodd"/>
            <path id="Path_18440" data-name="Path 18440" d="M475.643,130.281c-1.263.779-2.207,1.3-3.061,1.747-.446.236-.869.446-1.3.67-.126.06-.248.124-.376.189l-.5.264c-.3.158-.608.326-.94.512a2.609,2.609,0,0,0,.011-1.258l.318-.126.593-.233.719-.282.958-.375,3.442-1.351C475.7,129.951,475.814,130.166,475.643,130.281Z" transform="translate(-448.695 -106.053)" fill-rule="evenodd"/>
            <path id="Path_18441" data-name="Path 18441" d="M469.148,127.306v0a3.575,3.575,0,0,0-.253.365c-.122.015-.287-.432-.626-.862v0c0-.186,0-.36.01-.536v0c.018-.575.026-1.108.047-1.626,0-.057.007-.1.007-.153v0c.039-1.206.083-2.26.122-3.147.036-.342.471-.36.489.047.047.9.083,1.987.129,3.22v0c0,.155,0,.308.011.461v.008c.007.407.029.829.036,1.273v0C469.13,126.67,469.139,126.981,469.148,127.306Z" transform="translate(-449.447 -111.679)" fill-rule="evenodd"/>
            <path id="Path_18442" data-name="Path 18442" d="M469.467,132.307a2.934,2.934,0,0,0-1.351.039v-.2q.017-.584.018-1.157c.011-.129.011-.248.011-.38v0c.006-.2.006-.411.018-.614.01-.386.018-.776.028-1.152a2.834,2.834,0,0,0,1.2.029c.023.543.029,1.1.041,1.665v0a.368.368,0,0,0,.007.083v0c0,.329.01.657.01,1v.007C469.457,131.854,469.467,132.082,469.467,132.307Z" transform="translate(-449.544 -106.797)" fill-rule="evenodd"/>
            <path id="Path_18443" data-name="Path 18443" d="M470.168,158.474q-1.19-.76-2.368-1.548c.072-3.9.14-7.9.212-11.846q.01-.907.036-1.8c.018-1.749.057-3.468.082-5.172,0-.183.011-.362.011-.554v-.011c.01-.425.018-.86.028-1.286v-.494a3.885,3.885,0,0,0,1.61-1.1c.01.372.01.746.016,1.12s.011.735.023,1.115v0c.007.344.007.694.018,1.048q.027,1.484.046,3c.018,1.066.036,2.148.054,3.231C470.013,148.929,470.093,153.792,470.168,158.474Z" transform="translate(-449.743 -103.13)" fill-rule="evenodd"/>
            <path id="Path_18444" data-name="Path 18444" d="M478.513,139.131a1.474,1.474,0,0,1-1.641-.143c-.039.042-.075.086-.117.125v0a3.886,3.886,0,0,1-1.61,1.1,1.583,1.583,0,0,1-1.747-.479c.007-.008.007-.008,0-.015l-.011,0a2.143,2.143,0,0,1-.311-.468,3.175,3.175,0,0,1-.246-.653,3.28,3.28,0,0,1-4.25.2c-1.92,1.39-3.439.346-4.891-1.1-2.585,1.036-5.493.064-4.832-2.663-2.159-.383-3.342-2.743-.29-3.711-1.609-2.671.733-5.194,3.214-2.578a4.726,4.726,0,0,1,1.908-1.111c1.512-.368,2.313.926,2.735,1.905h0l.026.065a1.207,1.207,0,0,1,.171-.011h.006a2.109,2.109,0,0,1,.916.111h0a3,3,0,0,1,1.944,2.246,6.136,6.136,0,0,1,2.374-.8h.007a.7.7,0,0,0,.1-.007c.075,0,.135.007.207,0h.006a2.67,2.67,0,0,1,1.383.433v0a4.565,4.565,0,0,1,1.38,1.468l.339.072a2.934,2.934,0,0,1,1.351-.039,1.158,1.158,0,0,1,.859.841,2.609,2.609,0,0,1-.011,1.258,5.743,5.743,0,0,1-.381,1.144,3.265,3.265,0,0,1,1.2.4,1.012,1.012,0,0,1,.156.1A1.344,1.344,0,0,1,478.513,139.131Z" transform="translate(-456.72 -107.586)" fill="#078348" fill-rule="evenodd"/>
            <path id="Path_18445" data-name="Path 18445" d="M486.132,127.708c-1.97,1.869-3.25,1.222-4.6.838a3.477,3.477,0,0,1-.694,1.615,3.416,3.416,0,0,1-2.876,1.115h0a6.29,6.29,0,0,1-1.881-.363,4.284,4.284,0,0,1-.833.857,3.936,3.936,0,0,1-1.742.79,2.835,2.835,0,0,1-1.2-.029,2.432,2.432,0,0,1-1.454-1.007,2.821,2.821,0,0,1-.287.231,2.756,2.756,0,0,1-1.432.565H469.1c-.028,0-.077,0-.1,0-.083,0-.145,0-.231,0h-.011a2.88,2.88,0,0,1-2.444-1.767,4.383,4.383,0,0,1-1.576.326h0c-1.659.021-2.868-1.019-2.863-2.066a1.576,1.576,0,0,1,.728-1.268c-2.431-1.745-.068-3.307,2.8-1.269.893-2.127,2.376-1.991,4.086-.983a3.548,3.548,0,0,1,1.255-.43,1.825,1.825,0,0,1,1.74.755v0c.339.43.5.877.626.862a3.563,3.563,0,0,1,.253-.365v0a2.008,2.008,0,0,1,1.731-.932c.74.031,1.333.482,1.524.368a2.68,2.68,0,0,1,.629-1.209h0a2.644,2.644,0,0,1,2.78-.675,2.981,2.981,0,0,1,1.059.6c3.412-3.039,4.693.207,5.275.225,2.192-.755,3.714-.94,2.767.965C490.757,126.812,488.438,128.088,486.132,127.708Z" transform="translate(-453.655 -110.491)" fill="#078348" fill-rule="evenodd"/>
            <path id="Path_18446" data-name="Path 18446" d="M466.958,135.035c.006.007.006.007,0,.015l-.011-.011Z" transform="translate(-450.28 -102.894)" fill="#078348" fill-rule="evenodd"/>
          </g>
        </g>
        <g id="Group_280" data-name="Group 280" transform="translate(123.349 19.74)">
          <path id="Path_18447" data-name="Path 18447" d="M529.263,198.134H446.387l-5.81-4.3c-4.754-3.525-10.741-9.422-17.269-16.894a339.986,339.986,0,0,1-23.773-30.951c15.027-16.454,28.046-34.134,35.48-51.116a214.429,214.429,0,0,0,27.7,48.209c3.864,5.1,8,10.1,12.372,14.906q.939,1.032,1.89,2.048c.966,1.03,1.941,2.057,2.932,3.067q.975,1,1.974,1.991a170.115,170.115,0,0,0,27.045,22.1c.578.383,1.162.755,1.744,1.123.862.544,1.727,1.076,2.6,1.6q.89.535,1.783,1.054A128.246,128.246,0,0,0,529.263,198.134Z" transform="translate(-399.535 -94.868)" fill="#2b8fc8"/>
        </g>
        <g id="Group_281" data-name="Group 281">
          <path id="Path_18448" data-name="Path 18448" d="M485.05,205.761H323.843c33.055-16.679,72.039-77.873,80.844-123.006A191.968,191.968,0,0,0,415.967,111a355.849,355.849,0,0,0,24.376,42.056c.533.8,1.069,1.587,1.6,2.369l1.512,2.2c7.06,10.242,14.289,19.7,21.065,27.679C472.256,194.407,479.405,201.577,485.05,205.761Z" transform="translate(-323.843 -82.755)" fill="#078348"/>
        </g>
      </g>
      <g id="Group_283" data-name="Group 283" transform="translate(113.213 4.314)">
        <path id="Path_18449" data-name="Path 18449" d="M393.315,96.323l6.934,7.4s4.03-2.643,7.8-5.247c-6.279.3-7.387,1.819-7.387,1.819Z" transform="translate(-393.315 -78.526)"/>
        <path id="Path_18450" data-name="Path 18450" d="M432.616,89.2l9.279,4.089s2.673-4.012,5.119-7.882c-5.658,2.738-6.083,4.569-6.083,4.569Z" transform="translate(-368.57 -85.402)"/>
      </g>
    </g>
  </g>
</svg>
